<svg width="268" height="60" viewBox="0 0 268 60" fill="none" xmlns="http://www.w3.org/2000/svg"><path d="M96.3304 3.47656H90.288L72.2031 55.5883L81.2617 55.4967L83.4978 48.8825H103.111L105.347 55.4967L114.415 55.5883L96.3304 3.47656ZM86.1115 41.2286L93.344 17.6729L100.507 41.2286H86.1115Z" fill="currentColor"/><path d="M124.127 20.9595V3.5625H115.992V55.5876H124.127V27.7173H120.203V20.9595H124.127Z" fill="currentColor"/><path d="M140.875 48.7517C137.667 48.7517 135.804 48.0091 135.804 41.9889V27.7208H143.784V20.9581H135.804V10.4922H127.672V43.8455C127.672 55.5095 134.979 56.0342 138.934 56.0342C140.957 56.0389 142.977 55.8892 144.977 55.5862V48.4546C143.617 48.6429 142.247 48.7422 140.875 48.7517Z" fill="currentColor"/><path d="M172.682 20.9614V25.6399C170.52 22.1472 165.974 20.0703 161.944 20.0703C151.35 20.0703 144.117 28.4643 144.117 38.2767C144.117 48.0892 151.35 56.4782 161.944 56.4782C165.969 56.4782 170.52 54.4014 172.682 50.9086V55.5896H180.814V20.9614H172.682ZM162.386 49.2724C156.276 49.2724 152.244 44.2201 152.244 38.2767C152.244 32.3334 156.276 27.2761 162.386 27.2761C168.654 27.2761 172.682 32.3284 172.682 38.2767C172.682 44.2251 168.654 49.2724 162.386 49.2724Z" fill="currentColor"/><path d="M214.091 24.7513C212.153 21.8526 208.647 20.0703 203.656 20.0703C198.515 20.0703 194.483 22.0729 192.321 25.7909V20.9614H184.18V55.5896H192.312V37.6777C192.312 31.7368 194.995 27.2019 200.667 27.2019C206.478 27.2019 208.198 31.7343 208.198 37.6777V55.5896H216.33V35.0018C216.33 30.2516 215.803 27.3529 214.091 24.7513Z" fill="currentColor"/><path d="M246.822 20.9614V25.6399C244.661 22.1472 240.114 20.0703 236.084 20.0703C225.49 20.0703 218.258 28.4643 218.258 38.2767C218.258 48.0892 225.49 56.4782 236.084 56.4782C240.109 56.4782 244.661 54.4014 246.822 50.9086V55.5896H254.954V20.9614H246.822ZM236.534 49.2724C230.417 49.2724 226.385 44.2201 226.385 38.2767C226.385 32.3334 230.417 27.2761 236.534 27.2761C242.795 27.2761 246.822 32.3284 246.822 38.2767C246.822 44.2251 242.795 49.2724 236.534 49.2724Z" fill="currentColor"/><path d="M0.858125 31.1797H0.828125V59.9996H29.648V59.9696C14.0181 59.3696 1.45812 46.8096 0.858125 31.1797Z" fill="currentColor"/><path d="M29.648 0.0299999V0H0.828125V28.8199H0.858125C1.45812 13.19 14.0181 0.629998 29.648 0.0299999Z" fill="currentColor"/><path d="M30.8281 0V15H45.8281V44.9999H30.8281V59.9998C47.3981 59.9998 60.828 46.5699 60.828 29.9999C60.828 13.43 47.3981 0 30.8281 0Z" fill="currentColor"/><path d="M30.8281 15H15.8281V44.9999H30.8281V15Z" fill="currentColor"/><path d="M260.962 54.1638V48.9037H262.482C263.102 48.9037 263.562 48.9638 263.882 49.1837C264.302 49.4637 264.502 49.9038 264.502 50.4438C264.502 51.3638 263.962 51.8038 263.282 51.9237L264.642 54.1638H263.682L262.442 52.0438H261.742V54.1638H260.962ZM261.742 49.6038V51.3438H262.502C262.882 51.3438 263.162 51.2838 263.382 51.1237C263.562 50.9838 263.682 50.7638 263.682 50.4637C263.682 50.1037 263.522 49.8638 263.282 49.7438C263.082 49.6437 262.822 49.6038 262.502 49.6038H261.742ZM267.262 51.5038C267.262 54.1038 265.182 56.1838 262.582 56.1838C260.002 56.1838 257.922 54.1038 257.922 51.5038C257.922 48.9238 259.982 46.8438 262.602 46.8438C265.182 46.8438 267.262 48.9238 267.262 51.5038ZM266.442 51.5038C266.442 49.3637 264.702 47.6238 262.602 47.6238C260.442 47.6238 258.762 49.3637 258.762 51.5038C258.762 53.6638 260.442 55.4038 262.582 55.4038C264.702 55.4038 266.442 53.6638 266.442 51.5038Z" fill="currentColor"/></svg>
