<svg id="Layer_1" data-name="Layer 1" xmlns="http://www.w3.org/2000/svg" viewBox="0 0 734 143" aria-label="Finite State">
  <title>Finite State</title>
  <path fill="currentColor" d="M22.14,58.23V69.1H39v10H22.14V96.92H10.74V47.77H41.86V58.23Z"/>
  <path fill="currentColor" d="M58.09,96.92V47.77h11.4V96.92Z"/>
  <path fill="currentColor" d="M151.1,96.92V47.77h11.4V96.92Z"/>
  <path fill="currentColor" d="M204.69,58.23V96.92h-11.4V58.23H178.53V47.77h40.91V58.23Z"/>
  <path fill="currentColor" d="M233.73,96.92V47.77h31.11V58.23H245.13V67h18v9.92h-18v9.59h19.71V96.92Z"/>
  <path fill="currentColor" d="M488.56,98A33.22,33.22,0,0,1,472,93l3.15-10.33a24.54,24.54,0,0,0,13.75,4.76c4,0,5.56-1.88,5.56-4.29s-1.27-4.29-8.78-7.31C477,72.35,474,67.32,474,61.42c0-7.17,5.83-14.15,17.3-14.15a27,27,0,0,1,13.75,3.82l-2.89,10.2c-2.81-1.95-7.37-4-10.86-4-4.16,0-5.83,2-5.83,4,0,3.22,2.48,4.29,8.65,6.91,9.18,3.89,11.93,8.31,11.93,14.62C506.06,90.59,500.36,98,488.56,98Z"/>
  <path fill="currentColor" d="M549.38,58.54V97.23H538V58.54H523.23V48.08h40.9V58.54Z"/>
  <path fill="currentColor" d="M658.88,58.54V97.23h-11.4V58.54H632.73V48.08h40.9V58.54Z"/>
  <path fill="currentColor" d="M692.14,97.23V48.08h31.12V58.54H703.54v8.78h18v9.93h-18v9.59h19.72V97.23Z"/>
  <polygon fill="currentColor" points="598.33 47.67 596.79 47.67 573.65 97.23 585.25 97.23 588.94 88.31 601.54 88.31 597.96 79.59 592.57 79.59 597.46 67.79 602.29 79.59 602.29 79.59 605.9 88.31 605.91 88.31 609.6 97.23 621.47 97.23 598.33 47.67"/>
  <polygon fill="currentColor" points="131.39 78.83 131.39 47.77 119.99 47.77 119.99 68.48 131.39 78.83"/>
  <polygon fill="currentColor" points="109.28 63.58 90.75 46.83 89.21 47.1 89.21 96.92 100.61 96.92 100.61 71.24 130.25 97.86 131.39 97.66 131.39 83.59 109.28 63.58"/>
  <polygon fill="currentColor" points="365.93 133 312.73 102.16 312.8 40.73 365.96 10 419.25 40.8 419.15 101.9 414.2 104.82 414.3 43.65 365.96 15.71 317.74 43.59 317.68 99.31 365.92 127.28 402.57 105.98 402.5 78.14 381.84 66.23 381.94 47.49 402.67 59.54 402.52 50.29 374.04 33.56 374.13 70.71 394.44 82.57 394.6 103.05 365.99 119.61 337.19 102.92 337.27 82.49 357.88 70.76 357.83 61.53 337.4 73.44 337.36 54.77 357.94 42.73 357.92 33.55 329.41 50.34 329.41 98.05 324.35 95.2 324.46 47.51 362.85 24.91 362.9 45.57 342.31 57.6 342.33 64.85 362.74 52.94 362.83 73.63 342.2 85.37 342.15 100.08 365.99 113.89 389.63 100.21 389.52 85.42 369.19 73.55 369.08 24.91 407.43 47.43 407.75 68.21 386.84 56.06 386.8 63.38 407.44 75.27 407.52 108.82 365.93 133"/>
  <path fill="currentColor" d="M366.06,105l-16.4-9.55V90.12l16.25-9.33L381.78,90l.1,5.67Zm-11.14-12.2,11.13,6.47,10.83-6.39-11-6.39Z"/>
</svg>
