<svg xmlns="http://www.w3.org/2000/svg" width="866.661" height="400" viewBox="0 0 866.661 400" aria-label="FM Global">
  <title>FM Global</title>
  <g fill="currentColor">
    <path d="m304.99 160-2.004 3-44.499 45.5H54.004L2 163l-2-3h304.99ZM657.807 47.502 499.99 210.224l-2.096-66.058L629.991 0h1.476l26.34 47.502Z" />
    <path d="M499.99 141.866v68.358L342.452 47.503h-1L368.121 2l1.88-2 130.001 141.866h-.012Z" />
    <path d="m343.327 44.656-.875 2.847-.417.601 157.955 163.12v-4.75L343.327 44.656zM689.998 95.004 543.389 254.995l-43.399-44.771v-1L656.807 47.502l1-1h87.184v1l-54.993 47.502z" />
    <path d="M745.991 47.502v305.994l-53.009 44.5-3 2V94.003l54.009-46.5h2ZM304.987 254.996H109L55.996 209.5l-1-2h203.497l44.494 44.495 2 3ZM369.995 0l-.874 2-26.668 45.503H45.5L2 3 0 0h369.995Z" />
    <path d="m799.98 0 .02 400-2.02-1.004-52.989-45.5V46.502L797 2l2.98-2Z" />
    <path d="M799.984 0 798 2l-50.679 43.502-.839 1.76-1.491.24h-87.184L630.867 2l-.88-2h169.997ZM456.61 254.983 309.99 94.993l-.11-1.99 31.573-45.5h1l157.537 162.72-43.38 44.76ZM744.991 47.502l-55.009 47.52-1.13-1.729-31.045-45.791h87.184z" />
    <path d="M543.381 254.996h-86.77l.891-2 42.488-42.772 42.518 42.772.873 2zM55.004 207.501v146.995L3 398.996l-3 1V159.999l2 2L52.673 205.5l.954 1.696 1.376.305Z" />
    <path d="M110 255.003v144.993l-2.993-2-52.011-44.5-1-1V207.5h1l53.01 45.495 1.993 2.007ZM800 400l-110.018-.005 2-2 53.01-45.499 53.007 45.5L800 400ZM304.987 160v94.996l-47.5-47.495 47.5-47.502ZM342.452 47.503l-31.572 45.5-.877 2H0l2-3 43.501-44.5h296.951Z" />
    <path d="M55.004 352.496 55 207.501l-2.326-2.001v149.271l2.33-2.275zM747.321 354.496V45.502l-2.33 2v304.994l2.33 2zM499.99 206.474l156.438-161.3 1.379 2.328L499.99 210.224v-3.75z" />
    <path d="M109.995 399.996H0l2-2 53.004-45.5 53.003 45.5 2 2h-.012Z" />
    <path d="m2 161.999 300.987.002v90.995h-194.98v145H2V161.998m-2-2v239.998h110.007v-145h194.98V160H0ZM47.501 47.502 0 95.004V0l2 2 45.501 45.502Z" />
    <path d="M800 0H629.988L499.99 141.866 370 0H0v95.004h310l146.621 159.992 86.768-.001L689.982 95.022v304.974L800 400V0Zm-2 2v395.996H691.982V93.293h-3.13L542.508 252.996h-85.006L311.475 93.652l-.595-.648H2V2h367.121L499.99 144.826 630.867 2H798ZM840.773 376.248v2.22h-7.046V400h-3.008v-21.533h-6.967v-2.219h17.022Zm9.42 0 5.621 19.478 5.62-19.478h5.227V400h-3.009v-22.405L857.002 400h-2.612l-6.967-22.483V400h-2.691v-23.752h5.461Z" />
  </g>
</svg>
