<svg xmlns="http://www.w3.org/2000/svg" width="570" height="150" viewBox="0 0 570 150" aria-label="JPMorgan">
  <title>JPMorgan &amp; Chase Co.</title>
  <path
    fill="currentColor"
    d="M169 22h22c5.63 11.853 10.836 23.849 15.938 35.938l2.36 5.576c1.904 4.494 3.804 8.99 5.702 13.486 1.794-4.311 3.586-8.624 5.375-12.938l.813-1.96a1905.748 1905.748 0 0 0 12.776-31.594l1.173-2.961 1.022-2.599C237 23 237 23 238 22a69.436 69.436 0 0 1 4.473-.098l2.724.01 2.865.026 2.877.013c2.354.012 4.707.028 7.061.049v3h-8c.061 7.998.138 15.995.236 23.992.044 3.714.084 7.428.11 11.142.026 3.585.067 7.17.117 10.756.017 1.367.028 2.733.035 4.1.01 1.917.039 3.834.07 5.751l.033 3.304c.455 3.373 1.341 5.259 3.399 7.955 3.076 1.36 3.076 1.36 6 2v3h-31l1-4c3-1.188 3-1.188 6-2 1.229-1.007 1.229-1.007 1.12-3.056l-.006-2.74v-3.093l-.016-3.365-.005-3.426a5578.82 5578.82 0 0 0-.03-10.882c-.006-2.453-.01-4.905-.014-7.358-.011-6.027-.028-12.053-.049-18.08a130941.397 130941.397 0 0 0-11.567 28.563a2932.59 2932.59 0 0 1-2.256 5.552c-1.696 4.171-3.364 8.346-4.93 12.568l-.804 2.132a607.758 607.758 0 0 0-2.052 5.577C214 96 214 96 211.831 96.887L210 97c-5.709-10.822-10.409-22.06-15.188-33.313l-2.443-5.728a9190.64 9190.64 0 0 1-4.471-10.5c-1.626-3.822-3.26-7.642-4.898-11.459-.025 7.35-.043 14.701-.055 22.052a5200.59 5200.59 0 0 1-.02 7.505 4837.56 4837.56 0 0 0-.023 10.775l-.015 3.4v3.154l-.007 2.78c.024 2.49.024 2.49 1.12 5.334 3.503 1.716 3.503 1.716 7 3v3h-22l1-4c1.66-.681 3.328-1.347 5-2 2.237-3.293 2.271-6.236 2.319-10.146l.06-3.76.035-4.047c.019-1.384.038-2.769.059-4.153.051-3.637.09-7.273.128-10.91.04-3.713.091-7.427.141-11.14.097-7.281.181-14.563.258-21.844h-9v-3Zm256 17c2 2 2 2 2.375 5.375C427 48 427 48 425.437 50.438 422.182 52.525 419.79 52.291 416 52l1 3c.67 7.407.702 13.964-4 20-5.599 4.673-11.803 6.26-18.813 7.688-1.861.394-3.722.793-5.582 1.199l-2.464.506c-2.41.565-2.41.565-5.141 2.607v3c2.647.882 4.337 1.154 7.063 1.246l2.4.095 2.537.097c19.365.927 19.365.927 24.563 4.874 4.106 4.528 4.915 8.357 4.746 14.348-.626 4.745-2.45 8.566-5.922 11.88-6.959 5.276-13.773 5.8-22.262 5.772l-2.895.05c-7.065.004-13.08-.696-18.668-5.424-2.665-3.306-2.846-5.776-2.777-10.028C370 111 370 111 371.187 109c2.437-1.344 4.073-1.351 6.813-1 2.413 2.413 2.234 3.141 2.375 6.438.276 3.68.276 3.68 2.5 6.562 7.092 3.338 17.447 3.305 24.875.75 3.966-2.103 3.966-2.103 6.25-5.75.583-3.043.583-3.043 0-6-3.293-3.293-6.707-4.104-11.246-4.21-24.045-.755-24.045-.755-30.504-6.04-1.613-3.549-1.733-5.887-1.25-9.75 1.523-3.942 2.7-4.845 6.5-6.813C381 82 381 82 384 82v-2l-2.188-.125c-3.9-1.213-5.83-3.436-7.812-6.875-2.472-6.49-2.802-13.478-.21-19.98 2.803-5.346 6.747-8.648 12.21-11.02 9.198-1.796 17.07-1.067 25 4 2.693.707 2.693.707 5 1l.875-3.438L418 40c2.513-1.256 4.217-1.209 7-1Zm-37 9c-4.234 5.747-4.627 12.069-4 19 1.093 5.924 1.093 5.924 4.863 10.227 3.386 1.225 6.632 1.468 10.137.773 3.22-2.535 4.704-4.113 6-8 .148-2.619.231-5.193.25-7.813l.063-2.119c.035-4.792-.766-8.013-3.313-12.068-5.082-3.91-8.89-3.8-14 0ZM96 22c5.94-.1 11.88-.172 17.822-.22a824.57 824.57 0 0 0 6.052-.082 822.07 822.07 0 0 1 8.743-.089l2.694-.062c7.48-.003 14.639 1.555 20.189 6.828 4.008 7.013 4.835 14.87 3 22.781-2.283 5.916-6.229 9.413-11.813 12.094C134.352 66.644 125.86 66.122 117 66c.139 3.604.287 7.208.438 10.813l.119 3.103.127 2.979.11 2.745c.127 2.51.127 2.51 1.206 5.36 2.097 1.023 2.097 1.023 4.563 1.688.826.25 1.652.502 2.503.761L128 94v3H94v-3l1.68-.55 2.195-.763 2.18-.738c2.285-.912 2.285-.912 3.945-3.949.33-2.85.33-2.85.319-6.124l.06-3.821.035-4.13c.019-1.407.038-2.816.059-4.224.051-3.704.09-7.407.128-11.111.04-3.781.091-7.561.141-11.342.097-7.416.181-14.832.258-22.248h-9v-3Zm21 3v37c9.496 0 17.123-.123 24-7 2.416-3.645 2.332-7.08 2.375-11.375l.086-3.898c-.635-5.131-2.654-8.06-6.414-11.528-2.294-1.344-4.187-1.9-6.797-2.387l-2.422-.48C124.242 24.911 120.611 25 117 25Zm417 20c7.45 7.843 5.086 21.849 4.873 31.922l-.033 2.945-.051 2.629c.242 2.87.91 4.939 2.211 7.504l2.625 1.563L546 93v4h-26l1-5c2-1.188 2-1.188 4-2 2.182-4.364 1.185-10.27 1.188-15.063l.037-3.646c.01-6.746-.302-12.806-2.225-19.291-1.987-2.427-1.987-2.427-5.875-2.25-4.405.106-4.405.106-8.125 2.25-4.062 6.833-3.408 14-3.313 21.75-.002 1.34-.005 2.68-.01 4.02-.266 7.005-.266 7.005 2.323 13.23 2.05 1.192 2.05 1.192 4 2v4h-28v-4l3.438-1.25c3.623-1.278 3.623-1.278 4.272-3.607.281-2.078.448-4.081.495-6.177l.06-2.365.051-2.523.063-2.606c.066-2.74.125-5.481.183-8.222l.131-5.582c.107-4.556.209-9.112.307-13.668l-9-1v-3h18l2 7 1.32-1.242c8.13-7.354 17.823-9.556 27.68-3.758Zm-64.5.438c4.049 4.15 3.684 8.168 3.781 13.66l.056 2.394c.079 3.38.147 6.76.215 10.141.052 2.468.11 4.935.167 7.402l.04 2.327c.017 3.948.017 3.948 1.241 7.638 2.437-.27 2.437-.27 5-1l2-3h2c.316 6.947.316 6.947-2 10-4.394 2.861-7.798 3.567-13 3-3.885-1.727-5.27-3.212-7-7l-1.898 1.277-2.477 1.66-2.46 1.653c-5.33 3.472-10.956 2.946-17.165 2.41-3.974-1.781-5.45-3.192-7.875-6.75-1.815-5.243-1.844-9.282.063-14.5 4.443-6.742 11.688-9.507 19.324-11.36 2.483-.39 4.79-.49 7.3-.453l2.395.028L461 65a701.012 701.012 0 0 0-.375-6.25c-.07-1.16-.14-2.32-.21-3.516-.38-2.96-.784-4.77-2.415-7.234-2.327-1.163-3.847-1.199-6.438-1.25l-2.37-.078c-2.775.415-3.508 1.112-5.192 3.328-1.17 2.227-1.17 2.227-2.125 4.625-1.792 4.292-1.792 4.292-2.875 5.375-6.72-.72-6.72-.72-8-2-.477-3.404-.64-5.93 1.164-8.95 8.089-9.892 27.091-11.75 37.336-3.612Zm-26.063 30.874c-2.037 2.659-2.473 3.88-3.125 7.313C441.204 88 442.284 89.523 446 92c3.309.107 4.977-.03 8-1l2.07-.602c2.555-1.189 3.5-1.928 4.93-4.398.875-5.614.392-11.36 0-17-6.96-.306-12.757 2.256-17.563 7.313ZM306 46c6.943 5.924 9.304 12.624 10.277 21.54.344 8.659-1.326 16.622-6.902 23.397-5.74 5.824-11.146 8.218-19.313 8.563-7.985-.325-14.402-2.32-20-8.188C263.399 82.73 263.149 73.605 264 63c1.385-7.077 4.466-13.205 10.188-17.75 9.357-6.159 22.746-5.843 31.812.75Zm-27 5c-2.673 6.54-2.368 12.912-2.375 19.875l-.074 3.762c-.023 7.255.412 12.252 4.449 18.363 3.794 2.46 7.562 2.396 12 2 3.675-1.67 6.005-3.486 8-7 1.97-6.41 2.335-12.317 2.313-19l.048-2.867c.005-7.075-.771-12.994-5.423-18.633-7.191-3.672-13.731-2.488-18.938 3.5ZM44 22h32v3H66l.02 2.11c.06 6.59.106 13.18.135 19.771.016 3.388.037 6.775.071 10.162.037 3.903.054 7.805.067 11.707.015 1.206.03 2.411.047 3.653.001 7.933-.839 13.578-5.09 20.41-6.526 6.344-15.438 6.483-24.012 6.406-4.988-.337-9.333-1.239-12.93-4.977-1.633-2.798-1.677-4.645-1.62-7.867l.011-2.914C23 81 23 81 25 79c3.438-.438 3.438-.438 7 0 3.523 3.766 4.086 9.065 5 14 4.523 1.37 7.63.7 12-1 4.017-4.017 4.124-8.413 4.205-13.87l.06-3.579.051-3.848.063-3.951c.055-3.459.105-6.918.153-10.377.05-3.532.106-7.065.161-10.598.108-6.925.21-13.851.307-20.777H44v-3Zm316 20c2.92 1.396 4.722 2.722 7 5 .3 1.875.3 1.875.313 4l.05 2.125L367 55c-3 2-3 2-6 1.875-3.493-1.019-4.007-1.975-6-4.875-1.787-1.176-1.787-1.176-4-1-3.24 1.684-5.447 2.945-7.165 6.226-.992 3.296-1.077 6.094-1.065 9.536l.005 3.888.02 2.007c.018 2.035.02 4.068.02 6.103-.327 6.305-.327 6.305 1.185 12.24 1.888.685 1.888.685 4.063 1.125l2.222.508L352 93v4h-32v-4l1.715-.55 2.223-.763 2.214-.738c2.207-.861 2.207-.861 2.848-3.949.113-1.365.176-2.735.205-4.104l.06-2.487.051-2.67.063-2.746c.066-2.893.125-5.787.183-8.68l.131-5.885c.107-4.81.209-9.619.307-14.428h-10v-3h19l2 7 2.125-2.313C348.544 42.623 352.78 41.313 360 42ZM151 86c2.438 1.563 2.438 1.563 4 4-.063 3.625-.063 3.625-1 7-3.47 2.313-4.922 2.425-9 2-1.875-1.063-1.875-1.063-3-3-.633-5.91-.633-5.91 1.125-8.938 2.81-1.592 4.703-1.515 7.875-1.062Zm-68 0c1.875 1.063 1.875 1.063 3 3 .633 5.91.633 5.91-1.125 8.938C82.14 99.487 80.088 99.322 77 99c-3-2-3-2-3.813-4.875C72.995 90.903 73.17 89.602 75 87c2.799-1.4 4.905-1.253 8-1Z"
  />
</svg>
