<svg xmlns="http://www.w3.org/2000/svg" width="300" height="35.508" viewBox="0 0 300 35.508" aria-label="NBCUniversal">
  <title>NBCUniversal</title>
  <path
    fill="currentColor"
    d="M22.344 2.588h11.562v.447l-1.862 1.862a1.974 1.974 0 0 0-.67 1.545v29.066h-.447L9.067 15.436v15.007a1.862 1.862 0 0 0 .652 1.527l1.862 1.862v.447H0v-.447l1.862-1.862a1.862 1.862 0 0 0 .67-1.527V1.136h.41L24.82 21.152V6.442a1.862 1.862 0 0 0-.614-1.545l-1.862-1.862Zm43.812 22.698c0 6.163-4.339 8.993-11.433 8.993H36.476v-.447l1.862-1.862a1.862 1.862 0 0 0 .67-1.545V6.442a1.862 1.862 0 0 0-.67-1.545l-1.862-1.862v-.447H54.89c6.666 0 9.98 3.165 9.98 8.565a6.833 6.833 0 0 1-5.586 6.48c4.264.726 6.945 3.258 6.945 7.578M46.12 15.138h7.877c2.42 0 3.724-1.155 3.724-3.37 0-2.216-1.099-3.39-3.724-3.39h-7.876zm12.811 9.31c0-2.793-1.694-3.892-5.064-3.892H46.12v7.746h7.746c2.867 0 5.064-.987 5.064-3.854m26.72 4.45c-5.382 0-9.05-4.134-9.05-10.316 0-6.554 4.06-10.464 9.31-10.464a6.517 6.517 0 0 1 6.778 4.264l.484.13 2.662-10.818-.446-.186a4.562 4.562 0 0 1-3.11 1.136c-1.545 0-3.947-.596-6.833-.596-9.31 0-16.572 6.256-16.572 16.497s7.15 16.385 16.423 16.385a15.883 15.883 0 0 0 11.935-4.766l-4.134-5.027a8.975 8.975 0 0 1-7.448 3.723m33.106-25.806 1.862 1.862a2.01 2.01 0 0 1 .69 1.545v15.585c0 4.543-2.291 6.777-6.313 6.777s-6.387-2.122-6.387-6.777V6.442a1.862 1.862 0 0 1 .69-1.545l1.861-1.862v-.428h-12.12v.447l1.862 1.862a1.862 1.862 0 0 1 .67 1.545v15.398c0 8.77 5.586 13.034 13.425 13.034s13.443-4.32 13.443-13.034V6.442a1.862 1.862 0 0 1 .67-1.545l1.863-1.862v-.428h-12.215zm37.65 26.83v-9.142c0-5.437-2.7-8.602-7.337-8.602a7.839 7.839 0 0 0-7.187 4.301V12.55h-9.03v.484l1.861 1.862c.577.577.67.95.67 2.085v13.034c0 1.136 0 1.508-.67 2.085l-1.862 1.862v.447h11.693v-.447l-1.862-1.862c-.577-.577-.67-.95-.67-2.085v-7.43c0-2.569 1.266-4.598 4.115-4.598 2.402 0 3.52 1.75 3.52 4.263v12.03h9.197v-.447l-1.862-1.862c-.577-.577-.651-.95-.651-2.085m14.188 0V12.55h-9.124v.484l1.862 1.862c.577.577.67.95.67 2.085v13.034c0 1.136 0 1.508-.67 2.085l-1.862 1.862v.447h11.768v-.447L171.3 32.1c-.577-.577-.689-.95-.689-2.085M167.205 9.31a3.854 3.854 0 0 0 3.91-3.948 3.836 3.836 0 0 0-3.91-3.91 3.947 3.947 0 1 0 0 7.858m30.908 3.221h-8.341l-3.855 10.502h-.111l-4.413-10.483h-8.23v.484a11.172 11.172 0 0 1 3.389 4.338l8.863 17.875h.484l8.807-17.875a10.371 10.371 0 0 1 3.407-4.338zm21.376 10.874v1.862h-15.026a5.009 5.009 0 0 0 5.455 4.078 6.033 6.033 0 0 0 4.6-1.862l3.723 4.431a13.406 13.406 0 0 1-8.9 2.849c-7.169 0-11.73-4.357-11.73-11.172a10.911 10.911 0 0 1 11.58-11.619c7.207 0 10.372 4.748 10.372 11.265m-6.796-2.01a3.91 3.91 0 0 0-3.985-4.19 4.32 4.32 0 0 0-4.394 4.19zm18.322-4.47V12.55h-9.03v.484l1.861 1.862c.577.577.67.95.67 2.085v13.034c0 1.136 0 1.508-.67 2.085l-1.862 1.862v.447h11.712v-.447l-1.862-1.862c-.559-.577-.652-.95-.652-2.085v-6.703c0-3.259 1.601-5.009 4.171-5.009a4.674 4.674 0 0 1 3.221 1.266l1.75-6.796a6.2 6.2 0 0 0-2.811-.633 7.001 7.001 0 0 0-6.517 4.804m23.275 4.022c-2.98-.484-5.214-.484-5.214-2.253 0-1.006.838-1.676 2.793-1.676 2.644 0 5.102.875 6.014 2.886l.466.13 2.104-8.285-.447-.168a4.469 4.469 0 0 1-2.942 1.136c-1.471 0-2.83-.577-5.586-.577-4.767 0-9.31 1.713-9.31 7.094 0 4.208 3.352 5.828 6.554 6.368 3.203.54 5.419.614 5.419 2.42 0 1.043-.913 1.862-2.85 1.862a11.358 11.358 0 0 1-7.205-2.495l-3.11 4.636a15.994 15.994 0 0 0 9.85 2.924c6.257 0 10.13-2.756 10.13-7.597 0-4.17-3.538-5.79-6.797-6.35m30.406 11.005 1.862 1.862v.447h-9.049v-2.998a7.262 7.262 0 0 1-6.74 3.575 6.387 6.387 0 0 1-6.89-6.33c0-4.823 3.315-7.058 10.558-7.207 2.327 0 2.942-.558 2.942-1.862 0-1.303-1.062-2.215-3.873-2.215a7.243 7.243 0 0 0-5.307 2.364l-3.538-4.17a13.164 13.164 0 0 1 9.59-3.352c6.87 0 9.85 2.849 9.85 8.416v9.31c0 1.136.092 1.508.67 2.085m-7.318-7.448a12.475 12.475 0 0 1-2.793.354c-2.998.186-4.04 1.285-4.04 2.775a2.327 2.327 0 0 0 2.476 2.439 4.003 4.003 0 0 0 4.413-4.003zm20.798 7.448c-.596-.577-.689-.95-.689-2.085V0h-9.16v.447l1.861 1.862c.578.577.67.95.67 2.067v25.509c0 1.135-.092 1.508-.67 2.085l-1.862 1.862v.447H300v-.447z"
  />
</svg>
